<svg xmlns="http://www.w3.org/2000/svg" xmlns:xlink="http://www.w3.org/1999/xlink" width="522.999" height="733" viewBox="0 0 522.999 733"><defs><filter id="a" x="0" y="0" width="522.999" height="733" filterUnits="userSpaceOnUse"><feOffset dx="-8" dy="8" input="SourceAlpha"/><feGaussianBlur stdDeviation="3.5" result="b"/><feFlood flood-opacity="0.102"/><feComposite operator="in" in2="b"/><feComposite in="SourceGraphic"/></filter></defs><g transform="matrix(1, 0, 0, 1, 0, 0)" filter="url(#a)"><g transform="translate(520.5 714.5) rotate(180)" fill="#fff"><path d="M 496.9997863769531 711.0008544921875 L 4.999513149261475 711.0008544921875 C 2.794240236282349 711.0008544921875 1.00005841255188 709.20654296875 1.00005841255188 707.0011596679688 L 1.00005841255188 5.001369476318359 C 1.00005841255188 2.795551300048828 2.794240236282349 1.000914931297302 4.999513149261475 1.000914931297302 L 397.0044555664063 1.000914931297302 C 397.2618713378906 28.63093948364258 408.1708068847656 54.59566497802734 427.7880554199219 74.21309661865234 C 447.4056701660156 93.83088684082031 473.3700866699219 104.7398223876953 500.9993286132813 104.996711730957 L 500.9993286132813 707.0011596679688 C 500.9993286132813 709.20654296875 499.2051391601563 711.0008544921875 496.9997863769531 711.0008544921875 Z" stroke="none"/><path d="M 496.9997863769531 710.0008544921875 C 498.6537780761719 710.0008544921875 499.9993286132813 708.6552124023438 499.9993286132813 707.0011596679688 L 499.9993286132813 105.9829254150391 C 472.4773254394531 105.4748916625977 446.6502685546875 94.48976135253906 427.0809631347656 74.92018890380859 C 407.5119323730469 55.35105895996094 396.5267944335938 29.52361106872559 396.0182800292969 2.000914812088013 L 4.999513149261475 2.000914812088013 C 3.345603942871094 2.000914812088013 2.00005841255188 3.346914768218994 2.00005841255188 5.001369476318359 L 2.00005841255188 707.0011596679688 C 2.00005841255188 708.6552124023438 3.345603942871094 710.0008544921875 4.999513149261475 710.0008544921875 L 496.9997863769531 710.0008544921875 M 496.9997863769531 712.0008544921875 L 4.999513149261475 712.0008544921875 C 2.242785692214966 712.0008544921875 5.846058411407284e-05 709.7579956054688 5.846058411407284e-05 707.0011596679688 L 5.846058411407284e-05 5.001369476318359 C 5.846058411407284e-05 2.244096755981445 2.242785692214966 0.0009148836834356189 4.999513149261475 0.0009148836834356189 L 397.9997863769531 0.0009148836834356189 C 398.0003356933594 27.73655128479004 408.8301391601563 53.84082412719727 428.4951477050781 73.50600433349609 C 448.1602478027344 93.17127990722656 474.2645263671875 104.0013656616211 501.9993286132813 104.0013656616211 L 501.9993286132813 707.0011596679688 C 501.9993286132813 709.7579956054688 499.7565002441406 712.0008544921875 496.9997863769531 712.0008544921875 Z" stroke="none" fill="#8e499c"/></g></g></svg>